<?xml version="1.0" encoding="UTF-8"?>
<svg xmlns="http://www.w3.org/2000/svg" viewBox="0 0 224.86 225.02">
  <defs>
    <style>
      .cls-1 {
        fill: var(--logo-color,);
      }

      .cls-2 {
        isolation: isolate;
      }
    </style>
  </defs>
  <g id="_形状_3" data-name="形状 3" class="cls-2">
    <g id="_形状_3-2" data-name="形状 3">
      <path class="cls-1" d="M51.58,151.61c16.39-9.13,5.81-39.23-10.58-45.25,0,0,9.85-7.36,28.45-7.36,6.58,0,14.26.92,22.99,3.42,0,0,41.54-60.34,87.91-60.34,7.27,0,14.66,1.48,22.03,4.92l1.02-.58C182.97,18.28,149.83,0,112.43,0,50.34,0,0,50.37,0,112.51v.1c0,8.05,2.09,15.99,5.99,23.03,5.39,9.74,14.48,19.77,29,19.77,4.89,0,10.4-1.14,16.59-3.8ZM169.51,57.02c0,1.89,1.53,3.43,3.42,3.43s3.42-1.53,3.42-3.43-1.53-3.43-3.42-3.43-3.42,1.53-3.42,3.43ZM214.65,65.6c3.01-4.26,10.14-15.27,6.83-20.07-4.15-6.02-20.96,6.7-20.96,6.7h0c-11.03,7.38-33.95,24.89-40.03,46.51-8.09,28.79-2.49,46.43-24.48,63.87,0,0,.62-19.93-8.09-26.99,0,0-32.93,47.77-75.44,47.77-11.48,0-23.65-3.48-36.07-12.33,19.33,31.67,53.85,53.03,93.43,53.93.85.02,1.71.03,2.55.03,61.17,0,111.86-49.86,112.47-111.37.17-17.16-3.5-33.45-10.21-48.05ZM173.14,154.31s7.88-12.04,2.08-34.67l18.88-21.38s14.31,37.16-20.95,56.05Z"/>
    </g>
  </g>
</svg>
